<?xml version="1.0" encoding="UTF-8"?>
<svg id="Laag_1" xmlns="http://www.w3.org/2000/svg" version="1.1" viewBox="0 0 425.2 425.2">
  <!-- Generator: Adobe Illustrator 30.0.0, SVG Export Plug-In . SVG Version: 2.1.1 Build 123)  -->
  <defs>
    <style>
      .st0 {
        fill: #e97a08;
      }

      .st1 {
        fill: #FFFFFF;
      }
    </style>
  </defs>
  <g>
    <path class="st1" d="M52.9,280.36v33.75h-8.22v-33.75h8.22Z"/>
    <path class="st1" d="M89.05,314.11h-8.22l-13.75-20.82v20.82h-8.22v-33.75h8.22l13.75,20.92v-20.92h8.22v33.75Z"/>
    <path class="st1" d="M116.99,280.36v6.59h-13.75v7.11h10.29v6.39h-10.29v13.65h-8.22v-33.75h21.97Z"/>
    <path class="st1" d="M138.53,314.11l-7.02-12.74h-1.97v12.74h-8.22v-33.75h13.8c2.66,0,4.93.46,6.8,1.39,1.88.93,3.28,2.2,4.21,3.82.93,1.62,1.39,3.42,1.39,5.41,0,2.24-.63,4.25-1.9,6.01-1.27,1.76-3.13,3.01-5.6,3.75l7.79,13.37h-9.28ZM129.54,295.55h5.1c1.51,0,2.64-.37,3.39-1.11.75-.74,1.13-1.78,1.13-3.13s-.38-2.29-1.13-3.03c-.75-.74-1.88-1.11-3.39-1.11h-5.1v8.37Z"/>
    <path class="st1" d="M173.67,308.15h-12.6l-2.02,5.96h-8.61l12.21-33.75h9.52l12.21,33.75h-8.7l-2.02-5.96ZM171.56,301.8l-4.18-12.36-4.13,12.36h8.32Z"/>
    <path class="st1" d="M193.67,313.25c-1.96-.8-3.52-1.99-4.69-3.56-1.17-1.57-1.79-3.46-1.85-5.67h8.75c.13,1.25.56,2.2,1.3,2.86.74.66,1.7.99,2.89.99s2.18-.28,2.88-.84c.7-.56,1.06-1.34,1.06-2.33,0-.83-.28-1.52-.84-2.07-.56-.54-1.25-.99-2.07-1.35-.82-.35-1.98-.75-3.49-1.2-2.18-.67-3.96-1.35-5.34-2.02-1.38-.67-2.56-1.67-3.56-2.98-.99-1.31-1.49-3.03-1.49-5.14,0-3.14,1.14-5.6,3.41-7.38,2.28-1.78,5.24-2.67,8.89-2.67s6.71.89,8.99,2.67c2.28,1.78,3.49,4.26,3.65,7.43h-8.89c-.06-1.09-.47-1.95-1.2-2.57-.74-.62-1.68-.94-2.84-.94-.99,0-1.8.26-2.4.79-.61.53-.91,1.29-.91,2.28,0,1.09.51,1.94,1.54,2.55,1.03.61,2.63,1.27,4.81,1.97,2.18.74,3.95,1.44,5.31,2.12,1.36.67,2.54,1.65,3.53,2.93.99,1.28,1.49,2.93,1.49,4.95s-.49,3.67-1.47,5.24c-.98,1.57-2.4,2.82-4.25,3.75-1.86.93-4.06,1.39-6.59,1.39s-4.68-.4-6.63-1.2Z"/>
    <path class="st1" d="M225.89,286.95v6.83h11.01v6.35h-11.01v7.4h12.45v6.59h-20.67v-33.75h20.67v6.59h-12.45Z"/>
    <path class="st1" d="M260.89,314.11l-7.02-12.74h-1.97v12.74h-8.22v-33.75h13.8c2.66,0,4.93.46,6.8,1.39,1.88.93,3.28,2.2,4.21,3.82.93,1.62,1.39,3.42,1.39,5.41,0,2.24-.63,4.25-1.9,6.01-1.27,1.76-3.13,3.01-5.6,3.75l7.79,13.37h-9.28ZM251.9,295.55h5.1c1.51,0,2.64-.37,3.39-1.11s1.13-1.78,1.13-3.13-.38-2.29-1.13-3.03c-.75-.74-1.88-1.11-3.39-1.11h-5.1v8.37Z"/>
    <path class="st1" d="M306.71,280.36l-11.97,33.75h-10.29l-11.97-33.75h8.75l8.37,25.48,8.41-25.48h8.7Z"/>
    <path class="st1" d="M318.34,280.36v33.75h-8.22v-33.75h8.22Z"/>
    <path class="st1" d="M325.07,288.27c1.44-2.61,3.45-4.65,6.03-6.11s5.51-2.19,8.78-2.19c4.01,0,7.44,1.06,10.29,3.17,2.85,2.12,4.76,5,5.72,8.65h-9.04c-.67-1.41-1.63-2.48-2.86-3.22-1.23-.74-2.64-1.11-4.21-1.11-2.53,0-4.58.88-6.15,2.64-1.57,1.76-2.36,4.12-2.36,7.07s.79,5.3,2.36,7.07c1.57,1.76,3.62,2.64,6.15,2.64,1.57,0,2.97-.37,4.21-1.11,1.23-.74,2.19-1.81,2.86-3.22h9.04c-.96,3.65-2.87,6.53-5.72,8.63-2.85,2.1-6.28,3.15-10.29,3.15-3.27,0-6.2-.73-8.78-2.19-2.58-1.46-4.59-3.48-6.03-6.08-1.44-2.6-2.16-5.56-2.16-8.89s.72-6.31,2.16-8.92Z"/>
    <path class="st1" d="M369.16,286.95v6.83h11.01v6.35h-11.01v7.4h12.45v6.59h-20.67v-33.75h20.67v6.59h-12.45Z"/>
  </g>
  <g>
    <path class="st1" d="M128.65,168.44v61.08c0,9.46-2.66,16.74-7.99,21.85-5.33,5.11-12.5,7.67-21.53,7.67s-17.04-2.68-22.74-8.05c-5.71-5.37-8.56-12.99-8.56-22.87h21.72c0,3.75.77,6.58,2.3,8.5s3.75,2.88,6.64,2.88c2.64,0,4.68-.85,6.13-2.56,1.45-1.7,2.17-4.17,2.17-7.41v-61.08h21.85Z"/>
    <path class="st1" d="M230.48,168.44l-31.82,89.7h-27.35l-31.82-89.7h23.26l22.23,67.72,22.36-67.72h23.13Z"/>
    <path class="st1" d="M362.99,168.44l-23.38,89.7h-26.45l-14.31-59.03-14.82,59.03h-26.45l-22.74-89.7h23.38l12.91,65.3,15.97-65.3h24.02l15.33,65.3,13.03-65.3h23.51Z"/>
  </g>
  <g>
    <path class="st1" d="M55.41,336.2c-.4-.73-.94-1.28-1.64-1.66-.69-.38-1.5-.57-2.43-.57-1.03,0-1.93.23-2.73.69-.79.46-1.41,1.12-1.86,1.98s-.67,1.85-.67,2.97.23,2.17.68,3.03,1.09,1.52,1.9,1.98c.81.46,1.75.69,2.83.69,1.32,0,2.41-.35,3.25-1.05.84-.7,1.4-1.68,1.66-2.94h-5.95v-2.65h9.37v3.03c-.23,1.21-.73,2.32-1.49,3.35-.76,1.03-1.74,1.85-2.94,2.47-1.2.62-2.54.93-4.03.93-1.67,0-3.18-.38-4.53-1.13-1.35-.75-2.41-1.8-3.17-3.14-.77-1.34-1.15-2.86-1.15-4.56s.38-3.23,1.15-4.57c.77-1.35,1.83-2.4,3.17-3.15,1.35-.75,2.85-1.13,4.5-1.13,1.95,0,3.65.48,5.08,1.42,1.44.95,2.43,2.29,2.98,4h-3.99Z"/>
    <path class="st1" d="M71.33,348.3l-3.82-6.75h-1.64v6.75h-3.47v-17.31h6.5c1.34,0,2.48.24,3.42.71s1.65,1.11,2.12,1.91c.47.8.71,1.7.71,2.69,0,1.14-.33,2.17-.99,3.09-.66.92-1.65,1.55-2.95,1.9l4.14,7.02h-4.02ZM65.88,338.95h2.9c.94,0,1.64-.23,2.11-.68.46-.45.69-1.09.69-1.9s-.23-1.41-.69-1.85c-.46-.44-1.17-.66-2.11-.66h-2.9v5.08Z"/>
    <path class="st1" d="M81.87,347.33c-1.36-.76-2.43-1.81-3.22-3.16-.79-1.35-1.19-2.87-1.19-4.57s.4-3.2,1.19-4.55c.79-1.35,1.87-2.4,3.22-3.16,1.36-.76,2.84-1.14,4.46-1.14s3.13.38,4.48,1.14c1.35.76,2.41,1.82,3.2,3.16.79,1.35,1.18,2.86,1.18,4.55s-.39,3.23-1.18,4.57-1.86,2.4-3.21,3.16c-1.36.76-2.84,1.14-4.46,1.14s-3.11-.38-4.46-1.14ZM89.09,344.67c.79-.47,1.41-1.14,1.86-2.02s.67-1.89.67-3.05-.22-2.17-.67-3.04c-.45-.87-1.07-1.53-1.86-2-.79-.46-1.71-.69-2.75-.69s-1.96.23-2.76.69c-.8.46-1.43,1.13-1.87,2-.45.87-.67,1.88-.67,3.04s.22,2.17.67,3.05,1.07,1.55,1.87,2.02c.8.47,1.72.71,2.76.71s1.96-.24,2.75-.71Z"/>
    <path class="st1" d="M112.57,348.3h-3.47l-7.86-11.88v11.88h-3.47v-17.33h3.47l7.86,11.9v-11.9h3.47v17.33Z"/>
    <path class="st1" d="M126.84,332.06c1.38.71,2.45,1.72,3.2,3.04.75,1.31,1.13,2.84,1.13,4.57s-.38,3.25-1.13,4.55c-.75,1.3-1.82,2.3-3.2,3.01-1.38.71-2.98,1.07-4.8,1.07h-6.05v-17.31h6.05c1.82,0,3.42.36,4.8,1.07ZM126.13,343.86c.99-.99,1.49-2.39,1.49-4.19s-.5-3.21-1.49-4.23-2.4-1.52-4.22-1.52h-2.45v11.43h2.45c1.82,0,3.22-.5,4.22-1.49Z"/>
    <path class="st1" d="M144.33,337.99v2.93h-10.51v-2.93h10.51Z"/>
    <path class="st1" d="M171.36,330.99l-4.84,17.31h-4.09l-3.25-12.32-3.4,12.32-4.07.03-4.66-17.33h3.72l3.05,13.44,3.52-13.44h3.87l3.32,13.37,3.07-13.37h3.74Z"/>
    <path class="st1" d="M177.09,333.8v4.34h5.83v2.75h-5.83v4.59h6.57v2.83h-10.04v-17.33h10.04v2.83h-6.57Z"/>
    <path class="st1" d="M198.86,336.2c-.4-.73-.94-1.28-1.64-1.66-.69-.38-1.5-.57-2.43-.57-1.03,0-1.93.23-2.73.69-.79.46-1.41,1.12-1.86,1.98s-.67,1.85-.67,2.97.23,2.17.68,3.03,1.09,1.52,1.9,1.98c.81.46,1.75.69,2.83.69,1.32,0,2.41-.35,3.25-1.05.84-.7,1.4-1.68,1.66-2.94h-5.95v-2.65h9.37v3.03c-.23,1.21-.73,2.32-1.49,3.35-.76,1.03-1.74,1.85-2.94,2.47-1.2.62-2.54.93-4.03.93-1.67,0-3.18-.38-4.53-1.13-1.35-.75-2.41-1.8-3.17-3.14-.77-1.34-1.15-2.86-1.15-4.56s.38-3.23,1.15-4.57c.77-1.35,1.83-2.4,3.17-3.15,1.35-.75,2.85-1.13,4.5-1.13,1.95,0,3.65.48,5.08,1.42,1.44.95,2.43,2.29,2.98,4h-3.99Z"/>
    <path class="st1" d="M216.42,337.99v2.93h-10.51v-2.93h10.51Z"/>
    <path class="st1" d="M243.44,330.99l-4.84,17.31h-4.09l-3.25-12.32-3.4,12.32-4.07.03-4.66-17.33h3.72l3.05,13.44,3.52-13.44h3.87l3.32,13.37,3.07-13.37h3.74Z"/>
    <path class="st1" d="M256.31,345h-6.89l-1.14,3.3h-3.65l6.22-17.33h4.04l6.22,17.33h-3.67l-1.14-3.3ZM255.37,342.23l-2.5-7.24-2.51,7.24h5.01Z"/>
    <path class="st1" d="M275.23,330.99v2.8h-4.61v14.51h-3.47v-14.51h-4.61v-2.8h12.7Z"/>
    <path class="st1" d="M281.24,333.8v4.34h5.83v2.75h-5.83v4.59h6.57v2.83h-10.04v-17.33h10.04v2.83h-6.57Z"/>
    <path class="st1" d="M299.88,348.3l-3.82-6.75h-1.64v6.75h-3.47v-17.31h6.5c1.34,0,2.48.24,3.42.71.94.47,1.65,1.11,2.12,1.91.47.8.71,1.7.71,2.69,0,1.14-.33,2.17-.99,3.09s-1.64,1.55-2.95,1.9l4.14,7.02h-4.02ZM294.43,338.95h2.9c.94,0,1.64-.23,2.11-.68.46-.45.69-1.09.69-1.9s-.23-1.41-.69-1.85c-.46-.44-1.17-.66-2.11-.66h-2.9v5.08Z"/>
    <path class="st1" d="M319.07,340.89c.63.79.94,1.7.94,2.73,0,.93-.23,1.74-.68,2.44s-1.11,1.25-1.97,1.65c-.86.4-1.88.6-3.05.6h-7.46v-17.31h7.14c1.17,0,2.19.19,3.04.57.85.38,1.5.91,1.93,1.59.44.68.66,1.45.66,2.31,0,1.01-.27,1.85-.81,2.53s-1.25,1.16-2.15,1.44c.98.18,1.78.67,2.41,1.46ZM310.32,338.13h3.17c.83,0,1.46-.19,1.91-.56s.67-.91.67-1.6-.22-1.23-.67-1.61-1.08-.57-1.91-.57h-3.17v4.34ZM315.79,344.88c.47-.4.71-.96.71-1.69s-.25-1.33-.74-1.75c-.5-.42-1.17-.63-2.01-.63h-3.42v4.66h3.5c.84,0,1.5-.2,1.97-.6Z"/>
    <path class="st1" d="M326.36,347.33c-1.36-.76-2.43-1.81-3.22-3.16s-1.19-2.87-1.19-4.57.4-3.2,1.19-4.55c.79-1.35,1.87-2.4,3.22-3.16,1.36-.76,2.84-1.14,4.46-1.14s3.13.38,4.48,1.14c1.35.76,2.41,1.82,3.2,3.16.79,1.35,1.18,2.86,1.18,4.55s-.39,3.23-1.18,4.57-1.86,2.4-3.21,3.16c-1.36.76-2.84,1.14-4.46,1.14s-3.11-.38-4.46-1.14ZM333.58,344.67c.79-.47,1.41-1.14,1.86-2.02s.67-1.89.67-3.05-.22-2.17-.67-3.04c-.45-.87-1.07-1.53-1.86-2-.79-.46-1.71-.69-2.75-.69s-1.96.23-2.76.69c-.8.46-1.43,1.13-1.87,2-.45.87-.67,1.88-.67,3.04s.22,2.17.67,3.05,1.07,1.55,1.87,2.02c.8.47,1.72.71,2.76.71s1.96-.24,2.75-.71Z"/>
    <path class="st1" d="M345.68,330.99v10.71c0,1.17.31,2.07.92,2.69.61.62,1.47.93,2.58.93s1.99-.31,2.6-.93c.61-.62.92-1.52.92-2.69v-10.71h3.5v10.69c0,1.47-.32,2.71-.96,3.73-.64,1.02-1.49,1.78-2.55,2.29-1.07.51-2.25.77-3.56.77s-2.46-.26-3.51-.77c-1.05-.51-1.88-1.28-2.49-2.29-.61-1.02-.92-2.26-.92-3.73v-10.69h3.47Z"/>
    <path class="st1" d="M382.68,330.99l-4.84,17.31h-4.09l-3.25-12.32-3.4,12.32-4.07.03-4.66-17.33h3.72l3.05,13.44,3.52-13.44h3.87l3.32,13.37,3.07-13.37h3.74Z"/>
  </g>
  <path class="st0" d="M79.46,156.21s51.5-79.49,125.76-79.49c25.88,0,45.46,8.88,59.99,20.46,0,0-75.29-20.83-111.48,59.03h-74.26Z"/>
  <path class="st0" d="M170.51,156.21s21.27-56.35,76.87-56.35c41.42,0,51.68,33.4,98.45,30.88,0,0-2.17,8.3-25.31,8.3-27.43,0-44.03-21.64-75.01-21.64s-43.48,18.1-54.11,38.81h-20.9Z"/>
  <path class="st1" d="M210.63,146.32s11.84-2.58,20.45-5.99c8.47-3.36,16.12-5.01,25.63-5.01,17.54,0,33.77,14.93,66.8,14.93,9.91,0,18.14-1.64,24.63-3.74,0,0-8.39,13.63-38.81,13.63-27.06,0-39.74-13.62-56.54-13.62-19.03,0-24.44,10.45-42.17-.19Z"/>
</svg>
